<svg xmlns="http://www.w3.org/2000/svg" fill="none" viewBox="0 0 24 24"><path fill="currentColor" d="M12 12H3v1.5h9V12ZM9 8.25H1.5v1.5H9v-1.5Z"/><path fill="currentColor" d="m22.4392 12.4548-2.25-5.25a.7489.7489 0 0 0-.2763-.33097A.7487.7487 0 0 0 19.5 6.75h-2.25v-1.5a.74983.74983 0 0 0-.2197-.53033A.74987.74987 0 0 0 16.5 4.5h-12V6h11.25v9.4172a2.99248 2.99248 0 0 0-.8799.7771 2.99347 2.99347 0 0 0-.5135 1.0557H9.64342a3.00036 3.00036 0 0 0-1.221-1.733 3.00005 3.00005 0 0 0-2.06175-.4931 2.99987 2.99987 0 0 0-1.87299.9929 3.00007 3.00007 0 0 0 0 3.9664 2.99987 2.99987 0 0 0 1.87299.9929 3.00005 3.00005 0 0 0 2.06175-.4931 3.00036 3.00036 0 0 0 1.221-1.733h4.71318a2.98497 2.98497 0 0 0 1.0608 1.6212c.524.4075 1.1688.6287 1.8326.6287s1.3086-.2212 1.8326-.6287c.524-.4074.8973-.9779 1.0608-1.6212H21.75c.1989 0 .3897-.079.5303-.2197A.74969.74969 0 0 0 22.5 18v-5.25c0-.1015-.0207-.202-.0608-.2952ZM6.75 19.5c-.29667 0-.58668-.088-.83335-.2528a1.49984 1.49984 0 0 1-.55247-.6732 1.49986 1.49986 0 0 1-.08536-.8666 1.5002 1.5002 0 0 1 .41052-.7681 1.50071 1.50071 0 0 1 .76802-.4105 1.49929 1.49929 0 0 1 .86667.0854c.27408.1135.50835.3058.67317.5524.16483.2467.2528.5367.2528.8334a1.50183 1.50183 0 0 1-.43984 1.0602A1.50191 1.50191 0 0 1 6.75 19.5Zm10.5-11.25h1.7556L20.6129 12H17.25V8.25Zm0 11.25c-.2967 0-.5867-.088-.8334-.2528a1.50002 1.50002 0 0 1-.5524-.6732 1.49913 1.49913 0 0 1-.0854-.8666c.0579-.291.2008-.5583.4105-.7681.2098-.2097.4771-.3526.7681-.4105.2909-.0579.5925-.0282.8666.0854.2741.1135.5084.3058.6732.5524.1648.2467.2528.5367.2528.8334-.0005.3977-.1586.779-.4398 1.0602A1.50213 1.50213 0 0 1 17.25 19.5ZM21 17.25h-.8566a2.99595 2.99595 0 0 0-1.0626-1.619A2.99679 2.99679 0 0 0 17.25 15v-1.5H21v3.75Z"/></svg>