<svg xmlns="http://www.w3.org/2000/svg" viewBox="0 0 20 20"><path fill="currentColor" d="M18.9321 11.4102a8.7056 8.7056 0 0 0 .1125-1.41c0-2.39891-.9529-4.69954-2.6492-6.39581C14.6992 1.90813 12.3985.95518 9.99965.95518a8.72196 8.72196 0 0 0-1.41.1125 5.4675 5.4675 0 0 0-7.5 7.5 8.72184 8.72184 0 0 0-.135 1.43252c0 2.3989.95295 4.6995 2.64922 6.3958 1.69626 1.6962 3.99689 2.6492 6.39578 2.6492a8.72623 8.72623 0 0 0 1.40995-.1125 5.46826 5.46826 0 0 0 3.4797.7359 5.46755 5.46755 0 0 0 4.7563-4.7563 5.46726 5.46726 0 0 0-.736-3.4796l.0225-.0225Zm-4.635 2.7a3.74967 3.74967 0 0 1-1.68 1.2975c-.8307.326-1.7178.484-2.61.465a6.3085 6.3085 0 0 1-3.00745-.6225 3.90007 3.90007 0 0 1-1.365-1.2225 2.69256 2.69256 0 0 1-.525-1.5 1.02015 1.02015 0 0 1 .08294-.4087 1.01872 1.01872 0 0 1 .23956-.3413 1.16964 1.16964 0 0 1 .8175-.2775 1.03502 1.03502 0 0 1 .6825.24 1.8753 1.8753 0 0 1 .4725.705c.13012.3132.29623.6102.495.885.1981.2537.4557.4546.75.585a2.90321 2.90321 0 0 0 1.2675.2325 3.00009 3.00009 0 0 0 1.75495-.465c.2007-.1176.3676-.285.4846-.4861.1169-.201.18-.4289.1829-.6614a1.15382 1.15382 0 0 0-.0823-.4765 1.1537 1.1537 0 0 0-.2702-.401 2.31527 2.31527 0 0 0-.9375-.525c-.39-.1275-.9075-.255-1.55995-.3975a12.00288 12.00288 0 0 1-2.1825-.735 3.5853 3.5853 0 0 1-1.4175-1.05002 2.62496 2.62496 0 0 1-.525-1.6575 2.7375 2.7375 0 0 1 .555-1.68001 3.52504 3.52504 0 0 1 1.605-1.125 7.1324 7.1324 0 0 1 2.475-.35999 6.47182 6.47182 0 0 1 1.94245.2625c.4948.1469.9595.38053 1.3725.68999.3251.24413.5958.55317.795.9075a1.9633 1.9633 0 0 1 .255.93751 1.0487 1.0487 0 0 1-.0853.40762 1.04909 1.04909 0 0 1-.2372.34238 1.07234 1.07234 0 0 1-.8025.34499.93764.93764 0 0 1-.6675-.20999 2.52162 2.52162 0 0 1-.4875-.6525 2.84139 2.84139 0 0 0-.7875-.98251 2.34733 2.34733 0 0 0-1.46245-.345 2.73005 2.73005 0 0 0-1.5.375 1.0801 1.0801 0 0 0-.57.90001.86251.86251 0 0 0 .1875.5625 1.65752 1.65752 0 0 0 .54.41249 3.55466 3.55466 0 0 0 .69.27001c.24.0675.63.16499 1.17745.2925.69.15 1.305.315 1.8675.495a5.7059 5.7059 0 0 1 1.425.66c.3859.24402.7033.58212.9225.98252.2229.4567.3262.9625.3 1.47a3.17996 3.17996 0 0 1-.5775 1.86Z"/></svg>