<svg xmlns="http://www.w3.org/2000/svg" fill="none" viewBox="0 0 24 24"><path fill="currentColor" d="M18.75 1.5a8.25735 8.25735 0 0 0-4.6558 1.44704 8.25696 8.25696 0 0 0-3.028 3.82126A5.24546 5.24546 0 0 0 6.75 4.5H4.5v2.25a5.25586 5.25586 0 0 0 1.5394 3.7106C7.02363 11.4448 8.35809 11.9985 9.75 12h.75v6.787a7.44216 7.44216 0 0 0-4.55325 2.1595l1.0605 1.0606a6.00102 6.00102 0 0 1 2.22144-1.4065 6.0008 6.0008 0 0 1 2.60951-.3216 6.00118 6.00118 0 0 1 2.4965.825 5.9994 5.9994 0 0 1 1.904 1.8132l1.2462-.8346a7.48568 7.48568 0 0 0-2.3739-2.2582A7.48506 7.48506 0 0 0 12 18.7965V12h.75c2.1873-.0025 4.2843-.8725 5.8309-2.41911C20.1275 8.03425 20.9975 5.93727 21 3.75V1.5h-2.25Zm-9 9a3.75422 3.75422 0 0 1-2.6504-1.0996A3.75427 3.75427 0 0 1 6 6.75V6h.75a3.75405 3.75405 0 0 1 3.75 3.75v.75h-.75Zm9.75-6.75c-.002 1.7896-.7138 3.50534-1.9792 4.77078C16.2553 9.78622 14.5396 10.498 12.75 10.5H12v-.75c.002-1.7896.7138-3.50534 1.9792-4.77078C15.2447 3.71378 16.9604 3.00199 18.75 3h.75v.75Z"/></svg>