<svg xmlns="http://www.w3.org/2000/svg" viewBox="0 0 18 14"><path fill="currentColor" d="M5.94 13.705a9.57002 9.57002 0 0 0 3.69465-.7168 9.57134 9.57134 0 0 0 3.13255-2.086A9.57002 9.57002 0 0 0 15.57 4.07499v-.4425a7.04973 7.04973 0 0 0 1.68-1.7475 6.98312 6.98312 0 0 1-1.9425.5325 3.41973 3.41973 0 0 0 1.5-1.875 6.66767 6.66767 0 0 1-2.145.825 3.38998 3.38998 0 0 0-5.775 3.0825 9.59254 9.59254 0 0 1-6.975-3.5325 3.38249 3.38249 0 0 0 1.05 4.5 3.3525 3.3525 0 0 1-1.5-.42v.0375a3.3975 3.3975 0 0 0 2.6625 3.3375 3.39766 3.39766 0 0 1-1.5.06 3.3823 3.3823 0 0 0 1.20003 1.65581A3.38244 3.38244 0 0 0 5.76 10.75a6.78766 6.78766 0 0 1-4.2075 1.5 7.33283 7.33283 0 0 1-.8025-.0675 9.57721 9.57721 0 0 0 5.19 1.5"/></svg>