<svg xmlns="http://www.w3.org/2000/svg" fill="none" viewBox="0 0 16 16"><rect fill="#fff" style="mix-blend-mode:multiply"/><path fill="#2A254B" d="M8 4a2.49997 2.49997 0 0 0-1.76776 4.26777 2.49998 2.49998 0 0 0 2.72447.54193 2.5002 2.5002 0 0 0 1.12199-.92077A2.50004 2.50004 0 0 0 8 4Zm0 4a1.50004 1.50004 0 0 1-1.47118-1.79264A1.5 1.5 0 0 1 9.5 6.5 1.5017 1.5017 0 0 1 8 8Z"/><path fill="#2A254B" d="M8 1a7 7 0 0 0-6.86549 8.36563 6.99952 6.99952 0 0 0 1.91575 3.58407 6.99981 6.99981 0 0 0 3.58411 1.9158 7.00013 7.00013 0 0 0 4.04443-.3983 7.00098 7.00098 0 0 0 3.1415-2.5782A6.9999 6.9999 0 0 0 15 8c-.0021-1.85587-.7403-3.63514-2.0526-4.94744C11.6351 1.74026 9.85588 1.00209 8 1ZM5 13.1882V12.5a1.50169 1.50169 0 0 1 .43983-1.0602A1.5015 1.5015 0 0 1 6.5 11h3a1.50155 1.50155 0 0 1 1.5 1.5v.6882A5.94853 5.94853 0 0 1 8 14a5.94859 5.94859 0 0 1-3-.8118Zm6.9963-.7253a2.50086 2.50086 0 0 0-.7442-1.7423A2.50046 2.50046 0 0 0 9.5 10h-3a2.50081 2.50081 0 0 0-2.49625 2.4629 6.00003 6.00003 0 0 1-1.60968-6.61407 6 6 0 0 1 9.00953-2.80265 5.99992 5.99992 0 0 1 2.2023 2.80265 5.99934 5.99934 0 0 1 .2239 3.5574 5.9997 5.9997 0 0 1-1.8335 3.05667Z"/></svg>